# xmcd CD database file
#
# Track frame offsets:
#	150
#	17721
#	35424
#	49408
#	70602
#	87516
#	100884
#	121270
#	135203
#	148082
#	163231
#
# Disc length: 2421 seconds
#
# Revision: 0
# Processed by: cddbd v1.4PL0 Copyright (c) Steve Scherf et al.
# Submitted via: CDex 1.50Beta7
#
DISCID=9409730b
DTITLE=Les Flyings Tractors  - Bernadette
DYEAR=1900
DGENRE=Country
TTITLE0=La Polka de l'Ours
TTITLE1=Bernadette
TTITLE2=Cheese my Baby
TTITLE3=Le Paso de l' Aristo
TTITLE4=Ted and Bill
TTITLE5=La queue des 3 petits cochons
TTITLE6=Quand Marion Marie Noëlle Dansent la Polka
TTITLE7=Fricotte pas avec cette grosse
TTITLE8=C'est la P'tite Java qui pète
TTITLE9=De l'ail , de l'ail
TTITLE10=Allons tous au dodo
EXTD=
EXTT0=
EXTT1=
EXTT2=
EXTT3=
EXTT4=
EXTT5=
EXTT6=
EXTT7=
EXTT8=
EXTT9=
EXTT10=
PLAYORDER=
